<?xml version="1.0" standalone="no"?>
<!DOCTYPE svg PUBLIC "-//W3C//DTD SVG 20010904//EN"
 "http://www.w3.org/TR/2001/REC-SVG-20010904/DTD/svg10.dtd">
<svg version="1.0" xmlns="http://www.w3.org/2000/svg"
 width="500.000000pt" height="500.000000pt" viewBox="0 0 500.000000 500.000000"
 preserveAspectRatio="xMidYMid meet">
<metadata>
Created by potrace 1.14, written by Peter Selinger 2001-2017
</metadata>
<g transform="translate(0.000000,500.000000) scale(0.100000,-0.100000)"
fill="#000000" stroke="none">
<path d="M2010 2920 c-6 -4 -19 -57 -55 -225 -2 -11 -17 -81 -34 -155 -16 -74
-41 -191 -57 -260 -15 -69 -39 -180 -54 -247 -24 -110 -26 -126 -13 -150 8
-15 20 -31 26 -35 7 -4 164 -8 350 -8 314 0 337 1 338 18 0 9 2 24 4 32 2 8 7
29 10 45 3 17 10 46 15 65 14 50 14 50 -32 50 -54 0 -101 28 -118 70 -11 27
-11 43 -1 94 7 33 14 68 16 76 2 8 10 46 19 83 9 38 16 74 16 80 0 9 -46 12
-174 12 l-174 0 25 -30 c80 -95 163 -176 183 -178 24 -2 24 3 -6 -134 l-16
-73 -94 0 c-58 0 -94 4 -94 10 0 6 12 63 26 128 14 64 26 122 27 128 1 7 -32
49 -73 94 -41 46 -76 86 -78 89 -1 4 33 8 75 8 43 0 88 1 99 2 19 1 24 12 39
89 10 48 21 94 26 102 5 11 29 14 99 15 89 0 91 -1 87 -22 -5 -26 0 -33 34
-55 l26 -16 16 69 17 70 -60 80 c-34 43 -66 79 -73 80 -50 4 -361 3 -367 -1z"/>
<path d="M2450 2920 c-5 -3 16 -38 46 -77 l55 -72 -15 -63 c-9 -35 -18 -74
-20 -88 -2 -14 -18 -88 -35 -165 -17 -77 -33 -149 -35 -160 -2 -11 -9 -40 -15
-65 -27 -115 -6 -140 116 -140 46 0 83 -4 83 -8 0 -4 -9 -48 -20 -98 -11 -49
-23 -101 -26 -116 l-6 -28 136 0 136 0 6 28 c10 42 13 44 47 18 18 -13 59 -39
92 -57 85 -47 167 -103 204 -140 34 -33 71 -98 71 -124 0 -29 17 -15 23 19 12
76 -15 142 -81 195 -21 16 -82 53 -137 82 -120 62 -166 91 -184 113 -21 25 -4
19 37 -13 20 -16 89 -55 152 -87 137 -69 201 -126 224 -200 8 -27 16 -42 17
-34 19 146 -28 209 -231 307 -174 84 -219 120 -174 137 29 11 39 5 14 -8 l-25
-14 37 -18 c36 -17 37 -17 97 15 33 17 69 31 81 31 11 0 20 7 20 15 0 8 4 15
9 15 4 0 29 18 54 41 51 44 76 105 58 137 -9 15 -10 15 -11 1 0 -16 -24 -45
-68 -83 -33 -29 -26 -12 13 31 33 37 54 88 40 101 -3 4 -15 -4 -25 -18 -27
-35 -26 -23 26 210 25 113 47 216 50 230 3 14 11 52 19 85 7 33 10 62 5 65 -4
3 -65 5 -136 4 l-127 0 -17 -75 c-10 -41 -38 -171 -64 -289 -25 -118 -48 -225
-51 -237 -5 -22 -10 -23 -100 -23 -52 0 -95 1 -95 3 0 2 16 73 34 158 19 85
37 168 40 184 3 17 17 79 31 140 14 60 25 116 25 125 0 13 -27 15 -196 15
-108 0 -200 -2 -204 -5z"/>
<path d="M2676 1696 c-10 -8 -14 -29 -12 -71 2 -52 5 -60 21 -60 13 0 21 8 23
23 2 14 10 22 22 22 11 0 24 9 30 20 11 21 8 23 -27 20 -13 -1 -23 3 -23 9 0
6 13 11 29 11 22 0 29 4 27 18 -3 20 -67 26 -90 8z"/>
<path d="M2790 1695 c-10 -12 -8 -19 8 -40 l21 -26 -21 -35 -20 -34 24 0 c19
0 32 14 62 65 21 35 35 69 31 75 -10 15 -33 12 -43 -7 -9 -16 -11 -16 -27 0
-20 21 -20 21 -35 2z"/>
<path d="M2150 1683 c-31 -22 -40 -53 -24 -85 16 -32 49 -37 80 -13 24 18 35
19 32 3 -2 -9 12 -14 40 -16 38 -3 43 -1 40 15 -2 12 -11 17 -28 16 -22 -2
-23 -2 -5 6 11 5 23 7 28 4 4 -2 7 5 7 17 0 16 -4 20 -19 15 -11 -3 -22 -1
-26 5 -4 6 -3 10 2 9 24 -4 43 3 43 17 0 12 -9 14 -42 12 -35 -2 -42 -6 -40
-20 2 -11 -3 -18 -13 -18 -12 0 -15 6 -10 20 3 11 3 20 -2 21 -4 0 -16 2 -25
4 -9 2 -26 -4 -38 -12z m46 -35 c4 -6 3 -8 -4 -4 -6 3 -14 1 -18 -5 -3 -6 0
-15 7 -20 11 -7 11 -9 -2 -9 -24 0 -31 28 -11 39 21 13 20 13 28 -1z m41 -30
c-3 -8 -6 -5 -6 6 -1 11 2 17 5 13 3 -3 4 -12 1 -19z"/>
<path d="M2337 1683 c-4 -3 -7 -30 -7 -60 0 -46 3 -53 20 -53 15 0 20 7 20 26
l0 27 21 -27 c16 -20 29 -26 60 -26 24 0 38 4 34 10 -3 6 -2 10 4 10 5 0 13
-4 16 -10 14 -23 33 -9 33 24 0 19 3 39 6 45 11 17 -24 41 -59 41 -27 0 -34
-4 -38 -22 l-4 -23 -2 23 c-2 31 -41 31 -41 0 l0 -22 -16 22 c-15 22 -35 28
-47 15z m173 -44 c0 -5 -7 -9 -15 -9 -15 0 -20 12 -9 23 8 8 24 -1 24 -14z
m-63 -51 c-3 -8 -6 -5 -6 6 -1 11 2 17 5 13 3 -3 4 -12 1 -19z"/>
<path d="M2559 1683 c-1 -5 -2 -32 -3 -60 l-3 -53 44 0 c32 0 43 4 43 15 0 15
-11 19 -40 15 -8 -1 -12 1 -8 5 3 3 14 8 25 9 10 2 19 10 21 19 2 11 -4 15
-22 13 -14 -2 -26 1 -26 5 0 5 11 9 25 9 16 0 25 6 25 15 0 11 -11 15 -40 15
-22 0 -40 -3 -41 -7z"/>
</g>
</svg>
